<?xml version="1.0" encoding="UTF-8"?>
<svg xmlns="http://www.w3.org/2000/svg" xmlns:xlink="http://www.w3.org/1999/xlink" width="3072" height="3072" viewBox="0 0 3072 3072">
<rect x="-307.2" y="-307.2" width="3686.4" height="3686.4" fill="rgb(100%, 100%, 100%)" fill-opacity="1"/>
<path fill-rule="nonzero" fill="rgb(0%, 0%, 0%)" fill-opacity="1" d="M 1186.5 2847 C 1195.199219 2779.800781 1203.300781 2752.5 1229.101562 2702.101562 C 1292.398438 2578.199219 1401.601562 2467.199219 1534.800781 2391.601562 C 1583.398438 2364 1695.601562 2311.199219 1755.601562 2287.800781 C 1845.898438 2252.699219 1888.199219 2241.601562 1984.5 2227.5 C 2050.199219 2217.898438 2079.601562 2210.699219 2108.699219 2197.199219 C 2169.898438 2169 2222.398438 2106.601562 2239.5 2041.5 C 2250.601562 1999.199219 2247.898438 1920.601562 2233.199219 1869.601562 C 2221.5 1828.5 2211 1813.800781 2167.199219 1776.601562 C 2157 1767.601562 2156.101562 1766.101562 2160.898438 1763.699219 C 2168.101562 1759.5 2184.300781 1767.898438 2197.5 1782.300781 C 2210.101562 1796.398438 2211 1794 2199.601562 1775.699219 C 2186.101562 1754.699219 2172.300781 1740.300781 2149.199219 1723.199219 C 2124.300781 1704.898438 2118.300781 1694.101562 2124.300781 1679.699219 C 2129.398438 1667.101562 2144.699219 1660.5 2158.199219 1665 C 2177.398438 1671.300781 2190 1691.398438 2190 1715.398438 C 2190 1722.898438 2194.800781 1732.800781 2207.398438 1751.699219 C 2229.898438 1785 2247.898438 1834.199219 2253.898438 1878 C 2254.199219 1882.199219 2256 1872.601562 2257.199219 1857 C 2258.398438 1841.398438 2261.398438 1819.800781 2263.800781 1809 C 2267.699219 1791.601562 2267.699219 1788 2263.5 1778.101562 C 2252.699219 1751.699219 2262.550781 1724.320312 2280.371094 1717.589844 C 2293.28125 1712.71875 2301.339844 1716.660156 2307 1725.898438 C 2312.660156 1735.128906 2314.5 1749.300781 2302.199219 1767.300781 C 2277.601562 1803.898438 2274.300781 1816.5 2271.300781 1881 C 2270.101562 1906.5 2269.5 1928.101562 2269.800781 1928.398438 C 2270.101562 1929 2274.300781 1913.101562 2278.800781 1892.699219 C 2292.601562 1832.699219 2310.300781 1806 2336.101562 1806 C 2349.300781 1806 2364 1819.800781 2364 1832.101562 C 2364 1843.800781 2357.699219 1851.898438 2337 1866 C 2319.898438 1877.699219 2302.800781 1895.699219 2294.699219 1911 C 2290.199219 1919.398438 2271 1983.898438 2272.5 1985.398438 C 2272.800781 1986 2276.101562 1981.5 2279.699219 1975.800781 C 2289.601562 1959.898438 2317.800781 1935.601562 2330.398438 1932 C 2345.101562 1928.101562 2350.078125 1928.351562 2362.078125 1934.050781 C 2381.359375 1943.949219 2385.898438 1972.199219 2370.601562 1989.300781 C 2362.5 1998.300781 2360.699219 1998.898438 2343.601562 1998.300781 C 2323.199219 1997.699219 2313 2001.601562 2300.398438 2015.101562 C 2289.898438 2025.898438 2276.398438 2055.898438 2266.5 2090.101562 C 2236.5 2194.199219 2176.5 2290.199219 2080.5 2386.800781 C 2039.101562 2428.5 2019.601562 2444.101562 1987.199219 2462.101562 C 1970.101562 2471.398438 1963.5 2473.199219 1943.699219 2474.398438 C 1922.699219 2475.601562 1918.199219 2475 1903.800781 2467.800781 C 1850.398438 2441.699219 1837.5 2374.199219 1878 2333.699219 C 1913.699219 2298 1967.699219 2305.199219 1989.898438 2348.699219 C 1995.898438 2361 1998 2369.699219 1998.300781 2383.199219 C 1998.300781 2396.101562 1999.199219 2399.699219 2001 2395.5 C 2002.5 2392.199219 2003.699219 2378.101562 2003.699219 2364 C 2004 2332.800781 1998.601562 2319.300781 1979.101562 2301.898438 C 1935 2263.199219 1859.101562 2284.800781 1823.101562 2346 C 1805.101562 2376.601562 1801.5 2421 1812.300781 2470.800781 C 1818.601562 2498.699219 1818.601562 2501.101562 1814.101562 2523.601562 C 1806.300781 2563.800781 1784.101562 2592 1745.699219 2611.5 C 1712.699219 2628.300781 1679.699219 2627.699219 1614.300781 2608.800781 C 1561.199219 2593.5 1546.5 2590.800781 1509 2591.101562 C 1467.601562 2591.101562 1440.601562 2597.699219 1399.199219 2617.199219 C 1358.398438 2636.699219 1329 2658 1290 2697 C 1243.800781 2742.898438 1221.601562 2776.199219 1188.601562 2850 C 1185.300781 2856.898438 1185.300781 2856.898438 1186.5 2847 Z M 1663.5 2556.300781 C 1680.898438 2548.800781 1702.199219 2528.398438 1710 2512.800781 C 1728.300781 2474.699219 1705.800781 2433 1666.800781 2433 C 1648.800781 2433 1634.699219 2440.5 1626 2454.601562 C 1618.5 2467.199219 1618.5 2483.398438 1626 2507.398438 C 1633.199219 2530.199219 1633.5 2540.699219 1627.5 2555.101562 L 1623 2565.898438 L 1636.800781 2563.800781 C 1644.300781 2562.898438 1656.300781 2559.601562 1663.5 2556.300781 Z M 1663.5 2556.300781 "/>
<path fill-rule="nonzero" fill="rgb(0%, 0%, 0%)" fill-opacity="1" d="M 1176.898438 2737.800781 C 1179.300781 2709.898438 1192.800781 2667 1209.601562 2634.601562 C 1245.601562 2565.601562 1317.300781 2487.601562 1389.601562 2439.300781 C 1422 2417.699219 1479 2387.699219 1479 2392.199219 C 1479 2392.800781 1471.800781 2397.898438 1463.398438 2403.300781 C 1414.5 2434.5 1333.199219 2509.5 1290.898438 2562 C 1248 2615.398438 1198.199219 2700 1183.800781 2744.398438 C 1180.800781 2752.800781 1177.800781 2760 1176.898438 2760 C 1176 2760 1176 2750.101562 1176.898438 2737.800781 Z M 1176.898438 2737.800781 "/>
<path fill-rule="nonzero" fill="rgb(0%, 0%, 0%)" fill-opacity="1" d="M 1109.398438 2736 C 1083.898438 2635.5 1104 2534.398438 1168.199219 2440.5 C 1205.699219 2385.601562 1259.101562 2340 1321.5 2309.699219 C 1362.898438 2289.898438 1384.199219 2282.398438 1452.300781 2263.800781 C 1569 2232 1619.101562 2204.101562 1702.199219 2124.300781 C 1726.5 2100.898438 1724.101562 2108.398438 1695.601562 2146.800781 C 1658.699219 2196.300781 1608.898438 2235.898438 1522.5 2284.5 C 1385.101562 2361.898438 1336.5 2394.300781 1272.898438 2451.300781 C 1211.101562 2506.800781 1153.800781 2591.398438 1131.300781 2661 C 1125.898438 2677.199219 1120.199219 2703.601562 1118.101562 2722.5 L 1114.199219 2755.5 Z M 1109.398438 2736 "/>
<path fill-rule="nonzero" fill="rgb(0%, 0%, 0%)" fill-opacity="1" d="M 1075.5 2522.699219 C 1076.101562 2502.300781 1079.398438 2471.398438 1083 2454 C 1093.800781 2397 1123.199219 2310 1147.199219 2262.898438 C 1161.601562 2234.398438 1190.398438 2193.898438 1210.800781 2173.5 C 1230.898438 2153.398438 1231.199219 2153.101562 1216.800781 2163 C 1171.5 2195.101562 1123.800781 2252.699219 1090.199219 2316.601562 C 1081.5 2333.699219 1074 2346.601562 1074 2345.699219 C 1073.699219 2338.199219 1089 2297.398438 1101.300781 2271.898438 C 1124.398438 2224.800781 1172.699219 2155.800781 1226.699219 2092.5 C 1265.101562 2047.800781 1285.5 2018.101562 1324.5 1950 C 1367.101562 1875.601562 1386 1848.300781 1417.5 1816.199219 C 1449.300781 1783.800781 1460.101562 1778.101562 1441.5 1803.300781 C 1391.101562 1871.699219 1378.5 1964.699219 1413 2012.398438 C 1419.601562 2021.699219 1428.601562 2027.699219 1450.199219 2038.5 C 1480.800781 2053.5 1489.800781 2062.800781 1493.101562 2083.199219 C 1497 2106.898438 1479.601562 2130 1457.699219 2130 C 1445.101562 2130 1443.601562 2128.800781 1423.800781 2104.5 C 1410.601562 2088.300781 1398 2082 1379.398438 2082 C 1324.5 2082.300781 1273.199219 2163.300781 1264.5 2264.398438 C 1263.300781 2277.601562 1261.5 2289.601562 1260.300781 2291.101562 C 1259.398438 2292.601562 1251.898438 2298 1243.5 2303.101562 C 1221.601562 2317.199219 1173.601562 2367 1150.5 2400 C 1125 2436.300781 1100.699219 2484.898438 1088.699219 2523.898438 C 1083.300781 2540.699219 1077.898438 2555.699219 1076.699219 2557.199219 C 1075.5 2558.699219 1074.898438 2543.101562 1075.5 2522.699219 Z M 1075.5 2522.699219 "/>
<path fill-rule="nonzero" fill="rgb(0%, 0%, 0%)" fill-opacity="1" d="M 2015.488281 909.308594 C 2015.480469 909.421875 2015.640625 909.710938 2016 910.199219 C 2018.398438 913.199219 2021.699219 918.601562 2023.5 922.199219 C 2025.601562 925.5 2028.601562 928.199219 2030.699219 927.601562 C 2032.800781 927.300781 2033.699219 928.199219 2032.800781 929.699219 C 2031.601562 931.199219 2042.398438 949.800781 2056.199219 971.101562 C 2103.601562 1043.398438 2123.101562 1087.5 2135.699219 1149 C 2145.898438 1199.101562 2146.800781 1242.300781 2139 1315.5 C 2131.199219 1387.199219 2131.800781 1459.5 2140.5 1493.699219 C 2151.898438 1540.800781 2187.300781 1584.601562 2244 1623.300781 C 2276.699219 1645.5 2324.699219 1690.199219 2346.300781 1718.699219 C 2386.199219 1771.5 2409 1845 2409 1921.5 C 2409 2027.101562 2382 2123.996094 2325.601562 2219.097656 C 2262.898438 2325.296875 2153.699219 2441.101562 2037 2525.402344 C 2019.601562 2537.703125 2004.300781 2549.097656 2002.800781 2550.597656 C 1985.699219 2564.996094 2077.199219 2517.296875 2120.398438 2489.097656 C 2180.699219 2449.496094 2223.601562 2414.398438 2278.800781 2359.5 C 2333.101562 2305.5 2354.101562 2280.898438 2385.601562 2235 C 2432.101562 2167.199219 2462.699219 2100.898438 2475.601562 2041.5 C 2481.300781 2014.800781 2480.398438 1936.5 2473.800781 1903.5 C 2450.699219 1784.398438 2389.199219 1697.398438 2273.398438 1621.199219 C 2223.601562 1588.5 2202.898438 1570.199219 2192.699219 1550.398438 C 2187.898438 1541.101562 2187.300781 1537.5 2190.300781 1534.199219 C 2195.699219 1527.601562 2198.101562 1528.800781 2219.398438 1547.699219 C 2230.5 1557.601562 2264.398438 1581.300781 2295 1600.800781 C 2362.5 1643.398438 2376.601562 1654.199219 2407.800781 1686.300781 C 2483.101562 1764.601562 2511.300781 1839 2517.898438 1978.5 C 2518.5 1991.699219 2519.699219 1988.398438 2528.398438 1948.5 C 2541.601562 1889.101562 2554.5 1810.800781 2559 1763.398438 C 2563.800781 1713.898438 2561.101562 1580.699219 2554.5 1533 C 2546.101562 1471.199219 2530.199219 1396.800781 2520.898438 1376.101562 C 2517.601562 1368 2499 1349.398438 2460.300781 1314.300781 C 2403 1263 2318.699219 1189.800781 2268 1148.101562 C 2224.800781 1112.101562 2160.601562 1053 2108.398438 999.898438 C 2056.371094 947.308594 2015.679688 907.628906 2015.488281 909.308594 Z M 2220.5 1169.488281 C 2222.46875 1168.351562 2238.410156 1209.371094 2244.601562 1233 C 2248.800781 1248.898438 2250.601562 1265.699219 2250.601562 1290 C 2250.898438 1342.800781 2239.199219 1373.699219 2196 1434 C 2184.898438 1449.601562 2173.5 1466.699219 2170.800781 1472.101562 C 2168.101562 1477.199219 2164.800781 1482.300781 2163.300781 1483.199219 C 2156.398438 1487.699219 2152.199219 1412.101562 2156.699219 1366.5 C 2163.300781 1301.699219 2171.699219 1273.199219 2202.300781 1211.101562 C 2211.898438 1191.300781 2220 1173 2220.300781 1170.300781 C 2220.300781 1169.828125 2220.371094 1169.570312 2220.5 1169.488281 Z M 2345.398438 1247.101562 L 2340 1276.800781 C 2334.480469 1307.011719 2328.289062 1332.390625 2322.410156 1350.640625 C 2327.039062 1347.148438 2332.058594 1345.140625 2337.601562 1342.800781 C 2352.898438 1336.199219 2376.601562 1331.398438 2387.699219 1332.601562 L 2396.699219 1333.5 L 2381.101562 1353 C 2363.398438 1374.898438 2348.398438 1384.5 2328.300781 1387.5 C 2310.601562 1390.199219 2284.800781 1403.101562 2254.800781 1424.398438 C 2241.601562 1434 2218.800781 1452.898438 2204.101562 1467 L 2177.101562 1492.5 L 2187.898438 1476 C 2193.601562 1466.699219 2206.800781 1447.800781 2216.699219 1434 C 2232 1412.699219 2248.800781 1381.800781 2271.898438 1332 C 2274 1328.101562 2287.800781 1311.898438 2302.5 1296 C 2317.5 1280.398438 2333.101562 1263 2337.601562 1257.300781 Z M 2383.628906 1400.078125 C 2387.851562 1400.210938 2392.011719 1400.511719 2396.101562 1401 C 2418.601562 1403.398438 2446.800781 1410.898438 2451.898438 1416 C 2454.898438 1418.699219 2397 1453.199219 2373 1463.101562 C 2356.800781 1469.398438 2351.699219 1470 2310.898438 1469.398438 C 2264.398438 1468.5 2250.898438 1471.199219 2222.101562 1485.601562 C 2215.800781 1488.601562 2205 1497 2198.101562 1503.898438 L 2185.800781 1516.199219 L 2192.699219 1504.5 C 2206.199219 1481.398438 2255.101562 1440.898438 2292.300781 1422 C 2321.699219 1407.039062 2354.089844 1399.191406 2383.628906 1400.078125 Z M 2292.898438 1485 C 2339.398438 1485 2374.5 1504.5 2415.898438 1553.101562 L 2438.699219 1580.398438 L 2415.601562 1582.199219 C 2350.800781 1587.601562 2335.800781 1586.699219 2299.199219 1575.601562 C 2277.300781 1569 2227.5 1538.398438 2220.898438 1527.601562 C 2217.601562 1522.199219 2218.5 1521.601562 2233.800781 1519.800781 C 2253.601562 1517.398438 2266.800781 1520.699219 2299.5 1536 C 2313.300781 1542 2330.699219 1549.5 2338.800781 1552.199219 C 2355.898438 1557.898438 2382 1563 2382 1560.601562 C 2382 1558.199219 2367.601562 1539.601562 2360.101562 1532.398438 C 2356.5 1529.101562 2348.101562 1523.699219 2341.5 1520.699219 C 2325.300781 1513.5 2257.199219 1505.101562 2228.398438 1506.601562 L 2205.300781 1508.101562 L 2220.601562 1500.898438 C 2243.398438 1490.398438 2268 1485 2292.898438 1485 Z M 2292.898438 1485 "/>
<path fill-rule="nonzero" fill="rgb(0%, 0%, 0%)" fill-opacity="1" d="M 2372.699219 1439.699219 C 2372.699219 1451.398438 2363.398438 1460.699219 2351.699219 1460.699219 C 2340 1460.699219 2330.398438 1451.398438 2330.398438 1439.699219 C 2330.398438 1428 2340 1418.398438 2351.699219 1418.398438 C 2363.398438 1418.398438 2372.699219 1428 2372.699219 1439.699219 Z M 2372.699219 1439.699219 "/>
<path fill-rule="nonzero" fill="rgb(0%, 0%, 0%)" fill-opacity="1" d="M 2315.699219 1344.300781 C 2315.699219 1355.101562 2306.699219 1364.101562 2295.898438 1364.101562 C 2285.101562 1364.101562 2276.101562 1355.101562 2276.101562 1344.300781 C 2276.101562 1333.199219 2285.101562 1324.5 2295.898438 1324.5 C 2306.699219 1324.5 2315.699219 1333.199219 2315.699219 1344.300781 Z M 2315.699219 1344.300781 "/>
<path fill-rule="nonzero" fill="rgb(0%, 0%, 0%)" fill-opacity="1" d="M 2191.5 1360.199219 C 2184.300781 1328.398438 2186.699219 1307.101562 2200.5 1278.898438 C 2206.5 1266.898438 2212.5 1257.601562 2214 1258.5 C 2215.5 1259.398438 2218.800781 1270.5 2221.800781 1283.398438 C 2228.101562 1311.300781 2225.101562 1335.300781 2212.199219 1360.800781 C 2199 1386.601562 2197.199219 1386.601562 2191.5 1360.199219 Z M 2191.5 1360.199219 "/>
<path fill-rule="nonzero" fill="rgb(0%, 0%, 0%)" fill-opacity="1" d="M 1296 2286.898438 C 1296 2257.5 1311 2199.300781 1326.601562 2168.101562 C 1343.101562 2134.800781 1364.101562 2118 1388.398438 2118 C 1400.101562 2118 1400.101562 2118 1401.601562 2131.5 C 1407.601562 2182.5 1485 2195.398438 1524.300781 2151.898438 C 1538.699219 2136 1542.898438 2122.199219 1541.398438 2097 C 1540.5 2078.699219 1539 2074.5 1526.398438 2055.601562 C 1518.601562 2044.199219 1506 2027.398438 1498.199219 2018.699219 C 1490.398438 2010 1480.5 1995.300781 1476.300781 1986.300781 C 1469.699219 1971.601562 1468.5 1965.601562 1468.5 1939.5 C 1468.5 1894.800781 1481.699219 1857.300781 1514.699219 1807.5 C 1544.101562 1762.800781 1638 1677 1766.101562 1577.398438 C 1862.398438 1502.398438 1899 1466.699219 1933.5 1413 C 1997.699219 1314 2007.300781 1228.199219 1971.300781 1081.5 C 1947.601562 986.101562 1909.5 900.300781 1850.398438 810.300781 C 1831.199219 780.898438 1843.199219 791.699219 1870.5 828.300781 C 1921.5 896.699219 1969.5 993.601562 1996.5 1082.398438 C 2007.300781 1118.101562 2022.601562 1192.800781 2027.699219 1234.5 C 2037.601562 1315.800781 2039.398438 1515 2031 1591.5 C 2022.898438 1665.898438 2001.601562 1764.898438 1977.300781 1838.398438 C 1962.898438 1882.199219 1934.699219 1942.199219 1907.398438 1986.601562 C 1846.199219 2086.199219 1742.699219 2190.898438 1642.199219 2254.5 L 1615.5 2271.300781 L 1632 2255.699219 C 1732.800781 2159.699219 1771.800781 2111.398438 1806 2039.398438 C 1838.398438 1971 1847.398438 1929.300781 1849.199219 1839 C 1851 1758.300781 1855.199219 1740.601562 1896.601562 1647 C 1913.398438 1609.5 1938 1537.800781 1938 1527.898438 C 1938 1524.898438 1932.898438 1532.101562 1926.601562 1543.800781 C 1893.300781 1606.199219 1852.800781 1644.601562 1725 1734.601562 C 1667.699219 1774.800781 1624.5 1810.199219 1610.699219 1827.898438 C 1598.699219 1842.898438 1585.5 1865.699219 1587.601562 1867.5 C 1588.199219 1868.101562 1594.800781 1864.5 1602 1859.398438 C 1632 1839 1645.5 1834.800781 1681.5 1834.5 C 1713 1834.5 1715.699219 1835.101562 1734.601562 1844.398438 C 1759.800781 1856.699219 1782 1880.398438 1791 1904.398438 C 1800.601562 1929.601562 1798.5 1971.300781 1786.800781 1995.898438 C 1779 2012.101562 1749.898438 2050.800781 1747.199219 2048.398438 C 1746.601562 2047.800781 1749.898438 2038.5 1754.101562 2028 C 1765.800781 1999.5 1765.800781 1964.101562 1754.101562 1940.699219 C 1749.601562 1931.398438 1739.101562 1917.300781 1731 1909.800781 C 1682.398438 1864.199219 1608 1866 1560 1914 C 1536.300781 1937.398438 1528.800781 1954.199219 1528.800781 1984.5 C 1528.800781 2014.5 1535.398438 2030.699219 1556.699219 2052 C 1578.601562 2073.898438 1603.800781 2085 1630.5 2085 C 1642.199219 2084.699219 1656.898438 2082.898438 1663.5 2080.5 C 1669.800781 2078.101562 1675.800781 2076.601562 1676.101562 2077.199219 C 1676.699219 2077.5 1669.199219 2088.601562 1659.601562 2101.800781 C 1626 2147.398438 1576.5 2185.800781 1525.800781 2205.300781 C 1512.601562 2210.398438 1479 2220.300781 1450.800781 2227.5 C 1422.601562 2234.699219 1389.898438 2244 1377.898438 2248.199219 C 1348.5 2258.101562 1309.199219 2279.101562 1302 2288.398438 L 1296 2295.898438 Z M 1296 2286.898438 "/>
<path fill-rule="nonzero" fill="rgb(0%, 0%, 0%)" fill-opacity="1" d="M 1094.039062 210.199219 C 1077.609375 210.269531 1069.429688 218.03125 1069.800781 233.398438 C 1070.398438 255.300781 1128.898438 359.101562 1163.101562 399 C 1169.101562 405.898438 1186.800781 421.199219 1202.699219 433.199219 C 1228.5 453 1263 485.699219 1263 490.5 C 1263 491.699219 1259.101562 489.601562 1254.300781 486.300781 C 1237.199219 474 1218.300781 468 1197.601562 468.300781 L 1177.5 468.300781 L 1191.601562 474 C 1222.5 486.601562 1241.699219 501.898438 1266.898438 534 C 1275 544.800781 1298.398438 570.300781 1318.5 591 C 1338.601562 611.699219 1362.300781 638.101562 1371 649.5 L 1386.898438 670.5 L 1370.101562 652.199219 C 1344.601562 624.601562 1333.199219 617.699219 1248 579.898438 C 1229.398438 571.5 1230.300781 572.699219 1254.898438 590.699219 C 1287 614.101562 1313.101562 638.398438 1324.5 655.800781 C 1345.5 687.300781 1350.300781 707.699219 1360.5 805.5 C 1363.199219 831.300781 1365.300781 826.5 1372.800781 775.5 L 1378.199219 739.5 L 1380.601562 769.5 C 1381.800781 786 1383.601562 810.898438 1384.800781 825 L 1386.898438 850.5 L 1391.101562 829.5 C 1395.898438 804.300781 1407.601562 768 1409.101562 773.101562 C 1409.699219 774.898438 1408.800781 784.5 1407.300781 793.800781 C 1402.5 818.398438 1403.398438 859.199219 1408.800781 882 C 1413 900.300781 1416.601562 908.101562 1429.800781 928.800781 L 1435.5 937.5 L 1425 930 C 1419.300781 926.101562 1410 918.898438 1404.300781 914.398438 C 1398.898438 909.601562 1393.800781 906.300781 1392.898438 907.199219 C 1392 908.101562 1396.800781 918.601562 1403.699219 930.601562 L 1416.300781 952.5 L 1389.601562 926.101562 C 1374.898438 911.398438 1358.101562 892.199219 1352.699219 882.898438 C 1347 873.898438 1341 864.300781 1338.898438 861.601562 C 1335 856.199219 1341.601562 883.199219 1354.199219 922.5 C 1358.398438 935.699219 1361.398438 946.5 1360.800781 947.101562 C 1359.898438 948 1338.300781 897 1321.800781 855 C 1310.101562 824.699219 1309.5 822.300781 1309.5 790.5 C 1309.800781 772.5 1311.601562 740.398438 1314 719.699219 C 1317.898438 682.800781 1317.898438 681.601562 1311.601562 668.699219 C 1306.199219 657.601562 1289.699219 642 1283.398438 642 C 1282.199219 642 1282.800781 646.5 1284.300781 651.898438 C 1286.101562 657 1288.5 681.300781 1290 705.300781 C 1291.5 729.300781 1293.898438 757.5 1295.699219 768.300781 C 1297.199219 778.800781 1299.300781 795 1300.199219 804 L 1302 820.5 L 1295.398438 804 C 1285.199219 778.5 1285.5 793.199219 1296 849 C 1301.101562 875.699219 1304.699219 898.199219 1304.101562 898.800781 C 1303.199219 899.699219 1301.699219 895.5 1300.800781 889.800781 C 1298.101562 876 1288.800781 855 1259.101562 796.5 L 1234.5 748.5 L 1235.101562 716.699219 C 1236.300781 664.5 1231.800781 651.300781 1177.800781 551.398438 C 1168.800781 534.898438 1155.300781 500.101562 1140 453.898438 C 1120.199219 393 1090.199219 318.601562 1087.199219 321.898438 C 1086.601562 322.199219 1091.398438 339 1097.699219 358.5 C 1111.199219 400.5 1126.199219 455.699219 1143 525 C 1155.300781 576.601562 1159.199219 585.601562 1202.398438 667.5 C 1213.800781 689.101562 1221.300781 707.398438 1223.699219 720 C 1225.800781 730.800781 1233.898438 759.898438 1242 784.5 C 1255.5 826.199219 1265.101562 866.101562 1262.101562 868.800781 C 1261.5 869.398438 1259.398438 864.300781 1257.300781 857.398438 C 1248 826.199219 1204.199219 729.601562 1200.898438 733.199219 C 1200 733.800781 1201.5 738.300781 1203.898438 743.101562 C 1209.601562 753.898438 1217.398438 800.398438 1219.5 835.5 C 1220.398438 850.5 1220.398438 861.300781 1219.5 859.5 C 1218.898438 858 1212 825.601562 1204.5 788.101562 C 1196.699219 747.898438 1188.601562 715.199219 1185 708.601562 C 1181.101562 701.699219 1179.601562 700.199219 1181.101562 705 C 1183.5 713.699219 1182.898438 766.5 1179.601562 826.5 L 1177.5 868.5 L 1173.601562 845.101562 C 1171.5 831.898438 1170 791.398438 1169.699219 752.101562 C 1169.699219 713.699219 1168.5 679.800781 1167.300781 676.800781 C 1165.800781 673.199219 1163.699219 683.699219 1161.300781 705.300781 C 1158.300781 734.699219 1151.398438 769.5 1137.300781 828 C 1132.199219 849.601562 1136.101562 778.199219 1141.800781 745.5 C 1147.800781 712.199219 1148.699219 666.898438 1143.898438 658.5 C 1140.601562 653.398438 1140.300781 655.199219 1140 670.800781 C 1140 693 1133.101562 731.101562 1124.699219 755.101562 C 1114.800781 784.199219 1107.300781 816.898438 1104.300781 843.300781 L 1101.898438 868.5 L 1101.601562 838.5 C 1101.300781 818.699219 1103.101562 799.800781 1107 783 C 1110 769.199219 1112.398438 757.199219 1111.800781 756.898438 C 1108.199219 753.300781 1055.398438 879.601562 1051.5 900.898438 C 1050.300781 907.199219 1048.800781 911.699219 1047.898438 910.800781 C 1045.5 908.699219 1055.398438 864.898438 1066.5 828 C 1072.199219 809.101562 1076.398438 793.199219 1075.800781 792.601562 C 1074.300781 791.398438 1056 822 1044.300781 845.398438 C 1039.199219 855.601562 1030.800781 876 1026 890.398438 C 1014.898438 922.800781 1014.898438 918 1025.699219 870.898438 C 1030.199219 850.5 1033.800781 834 1033.5 834 C 1033.199219 834 1027.5 841.800781 1020.898438 851.398438 C 1007.101562 870.898438 992.402344 899.398438 982.199219 925.5 C 978.300781 935.398438 975.300781 942.601562 975 941.398438 C 975 938.398438 983.699219 903.898438 990.300781 882.300781 C 993.597656 871.800781 995.699219 862.5 994.800781 861.898438 C 992.699219 859.5 966 897.898438 952.800781 922.199219 C 934.5 955.5 915.296875 1001.699219 911.097656 1021.800781 C 908.097656 1036.5 906.003906 1039.5 893.402344 1049.101562 C 843.003906 1086 824.398438 1155.300781 851.097656 1207.5 L 856.800781 1218.601562 L 860.699219 1205.398438 C 870.902344 1171.5 894.300781 1143.300781 918 1137 C 930.601562 1133.699219 936.300781 1134 988.5 1141.800781 C 1028.699219 1148.101562 1081.800781 1147.800781 1108.199219 1141.800781 C 1119.601562 1139.101562 1149.300781 1127.398438 1174.199219 1115.699219 C 1199.101562 1104 1221.601562 1093.800781 1224 1092.898438 C 1230.601562 1090.199219 1177.199219 1125.601562 1158 1136.398438 C 1134.601562 1149.601562 1100.699219 1162.5 1069.5 1170.300781 C 1034.398438 1179 1029.300781 1184.101562 1020.300781 1218.898438 C 1008.300781 1267.199219 993.300781 1290.300781 954 1319.699219 C 925.5 1341.601562 886.496094 1371.601562 873.597656 1382.101562 L 863.699219 1389.898438 L 867 1381.199219 C 876.601562 1356 900.300781 1328.699219 916.5 1324.800781 C 920.398438 1323.898438 927.300781 1321.5 931.5 1320 L 939.300781 1317 L 928.800781 1304.398438 C 915.597656 1289.101562 906.601562 1265.699219 902.402344 1236 C 898.800781 1209.300781 901.800781 1198.199219 913.5 1195.199219 C 918 1194 922.800781 1194.601562 924.300781 1196.101562 C 925.800781 1197.601562 929.101562 1211.398438 931.5 1226.699219 C 938.101562 1266.300781 950.402344 1287.601562 964.199219 1282.199219 C 972.300781 1279.199219 978.601562 1255.800781 980.402344 1220.699219 L 982.5 1187.101562 L 1005 1179.300781 L 1027.5 1171.800781 L 1009.5 1166.398438 C 979.800781 1157.101562 958.796875 1156.5 932.097656 1163.699219 C 919.199219 1167.300781 903.300781 1172.699219 897 1176 C 877.5 1185.898438 876 1190.398438 876 1235.101562 C 876 1296.898438 872.398438 1316.398438 855 1351.5 C 832.800781 1395.601562 826.800781 1402.199219 837.300781 1370.699219 C 841.800781 1356.898438 846.597656 1338 847.800781 1329 L 849.902344 1312.5 L 836.402344 1330.5 C 822.902344 1348.199219 804 1368 804 1364.101562 C 804 1362.898438 807.300781 1350.898438 811.199219 1337.398438 C 815.101562 1323.601562 819.902344 1299.601562 821.699219 1284 C 823.800781 1268.398438 825.898438 1252.199219 826.5 1248 C 827.101562 1243.800781 825.601562 1223.101562 822.902344 1201.800781 C 819.003906 1170 818.703125 1158.898438 821.402344 1140.601562 C 828.300781 1096.5 845.398438 1057.800781 883.5 999 C 903 968.699219 927.601562 927 946.5 892.5 C 952.800781 881.101562 960.601562 866.699219 963.902344 861 L 969.902344 850.5 L 958.800781 862.5 C 952.800781 869.101562 941.699219 883.5 934.199219 894.601562 C 927 905.699219 919.5 915.601562 918 916.5 C 914.101562 918.898438 922.796875 898.800781 932.097656 883.800781 L 939.597656 871.5 L 925.5 885 C 909.898438 900 880.800781 936.300781 861 965.699219 L 848.097656 984.898438 L 841.800781 967.199219 C 813 887.699219 722.402344 779.398438 596.699219 673.800781 C 569.101562 650.699219 569.398438 651 606 685.800781 C 699.300781 774.300781 749.398438 831 791.097656 894.601562 C 825.296875 946.5 838.800781 983.101562 831 1002 L 827.097656 1011.300781 L 819.300781 996.898438 C 779.699219 924.300781 683.402344 842.398438 575.402344 789 C 537.601562 770.101562 483.601562 748.5 481.199219 750.898438 C 480.601562 751.5 491.101562 756.300781 504.902344 762 C 580.503906 792.601562 649.5 834.300781 711 886.5 C 782.101562 946.800781 822.902344 1008.898438 811.199219 1039.199219 C 808.199219 1046.699219 805.800781 1045.199219 793.800781 1027.800781 C 771.898438 995.699219 718.496094 949.5 674.097656 923.398438 C 636.597656 901.5 587.398438 885 547.5 880.800781 L 532.5 879 L 550.5 883.5 C 584.699219 892.199219 623.398438 906.300781 649.800781 919.800781 C 729.597656 960.898438 802.5 1038.300781 793.800781 1072.800781 L 791.699219 1080.601562 L 783.300781 1068.898438 C 764.398438 1043.101562 725.699219 1012.800781 688.800781 995.699219 C 644.398438 975 577.199219 963.898438 528 968.699219 L 505.5 971.101562 L 537.300781 971.699219 C 628.5 972.898438 711.902344 1005.300781 758.699219 1058.101562 C 774 1075.199219 784.5 1098.601562 781.5 1108.5 C 780.601562 1110.898438 779.398438 1114.800781 778.800781 1116.898438 C 777.898438 1119.601562 770.101562 1113.898438 756.902344 1101.300781 C 728.101562 1073.398438 686.699219 1053.898438 632.097656 1042.199219 C 610.796875 1037.699219 525 1032.601562 528.300781 1035.898438 C 529.199219 1037.101562 546.597656 1039.199219 567.300781 1041 C 587.699219 1042.800781 618.601562 1047.601562 636 1051.800781 C 675 1061.101562 723 1083.601562 742.5 1101.300781 C 766.800781 1123.800781 766.203125 1119.898438 764.402344 1226.101562 L 762.597656 1319.699219 L 739.5 1364.101562 C 716.101562 1408.800781 676.796875 1475.699219 648.597656 1518.898438 C 629.097656 1548.601562 628.5 1551.300781 635.699219 1565.699219 C 646.199219 1586.101562 713.101562 1642.800781 719.402344 1636.5 C 720.300781 1635.898438 718.5 1630.199219 715.5 1624.199219 C 711.300781 1615.199219 710.402344 1608.300781 711.902344 1589.699219 C 713.101562 1575 712.5 1565.398438 710.699219 1564.199219 C 705.601562 1561.199219 693.597656 1565.699219 682.800781 1575 L 672.597656 1584 L 666.300781 1576.199219 C 657.898438 1565.398438 658.199219 1560.898438 669.300781 1550.699219 C 676.800781 1543.5 681.300781 1542 693 1542 C 732 1542 742.5 1560.300781 728.699219 1605.601562 C 720.902344 1630.800781 722.398438 1644 735.597656 1668.601562 C 746.996094 1690.199219 763.5 1705.5 785.699219 1715.101562 C 795 1719 807.003906 1724.398438 812.402344 1726.5 C 818.703125 1729.5 822 1733.101562 822 1737 C 822 1746.898438 835.203125 1770.601562 850.199219 1786.800781 C 867.601562 1806.601562 893.398438 1820.101562 919.800781 1824 C 941.097656 1827 969 1827.898438 969 1825.800781 C 969 1821.601562 951.898438 1777.800781 944.097656 1762.5 C 932.398438 1738.800781 908.097656 1702.5 894.300781 1687.800781 L 883.5 1676.101562 L 893.402344 1683 C 934.953125 1726.019531 955.027344 1770.660156 966.300781 1799.398438 C 974.398438 1823.699219 978.300781 1872 974.699219 1905 C 969.601562 1955.699219 958.796875 1994.101562 934.800781 2048.699219 C 927.597656 2065.5 921.898438 2079 922.5 2079 C 925.5 2079 951.902344 2025.300781 961.199219 2000.398438 C 978.902344 1952.699219 982.199219 1933.800781 982.199219 1875.898438 L 982.5 1824.300781 L 991.199219 1822.800781 C 1011.300781 1818.601562 1012.800781 1819.5 1020.898438 1841.398438 C 1047.898438 1914.300781 1050.898438 2017.800781 1028.699219 2105.699219 C 1023.898438 2124.601562 1020.601562 2140.496094 1020.898438 2141.097656 C 1022.699219 2142.597656 1043.699219 2071.800781 1047.601562 2052 C 1053 2022.898438 1052.101562 1930.800781 1045.800781 1894.5 C 1038.898438 1853.398438 1027.800781 1812.300781 1018.5 1794.300781 C 1014.601562 1785.898438 1004.699219 1771.5 997.199219 1761.898438 C 972.726562 1731.859375 955.238281 1715.121094 926.699219 1683.898438 C 916.5 1673.101562 919.550781 1671.421875 933.902344 1683.601562 C 945.058594 1692.988281 960.648438 1708.878906 977.476562 1728.769531 C 993.652344 1747.871094 1011.351562 1770.421875 1026.601562 1794.898438 C 1034.488281 1807.570312 1035.300781 1808.398438 1043.699219 1806 C 1051.800781 1803.898438 1053.898438 1804.5 1060.199219 1812 C 1070.398438 1824.300781 1098.300781 1877.398438 1113 1912.5 C 1143.300781 1986 1153.5 2039.398438 1151.398438 2119.5 C 1150.800781 2152.5 1151.101562 2169 1152.601562 2161.5 C 1154.101562 2154.898438 1155.898438 2125.199219 1156.800781 2095.5 C 1158.898438 2032.5 1155.300781 2005.800781 1138.199219 1952.398438 C 1119 1893.601562 1070.101562 1794 1042.5 1757.699219 C 1009.660156 1716.050781 981.511719 1692.410156 948 1660.199219 C 935.871094 1648.539062 928.113281 1642.648438 929.613281 1641.148438 C 935.011719 1635.75 989.699219 1681.800781 1021.5 1719 C 1040.398438 1740.898438 1069.199219 1781.101562 1071.898438 1788.898438 C 1072.199219 1790.398438 1077.300781 1789.5 1083 1786.5 C 1088.699219 1783.5 1101.898438 1778.398438 1112.398438 1774.800781 L 1131.601562 1768.199219 L 1095.898438 1734 C 1058.101562 1697.398438 1023 1669.199219 964.5 1629 C 944.699219 1615.5 931.800781 1605.300781 936 1606.5 C 970.5 1616.699219 1059.601562 1683.300781 1113.898438 1739.699219 L 1140.300781 1767 L 1161 1767 C 1194.300781 1767 1230.300781 1782.898438 1261.199219 1811.699219 C 1277.699219 1827 1269 1814.699219 1237.800781 1779 C 1197.300781 1732.5 1122.898438 1679.398438 1008.601562 1614.601562 C 986.699219 1602.300781 969.300781 1591.5 969.902344 1591.199219 C 972.003906 1589.101562 1002.601562 1602 1027.199219 1614.898438 C 1057.800781 1631.101562 1136.398438 1681.800781 1177.5 1711.5 C 1194 1723.5 1221.601562 1741.199219 1239 1750.5 C 1269.898438 1767.300781 1285.199219 1777.800781 1310.101562 1800.601562 C 1324.800781 1813.800781 1329 1814.699219 1329 1805.398438 C 1329 1792.199219 1314.300781 1767.601562 1294.199219 1745.699219 L 1273.5 1723.800781 L 1297.5 1741.5 C 1310.699219 1751.101562 1329.601562 1765.199219 1339.5 1773 C 1365 1792.800781 1369.800781 1795.199219 1372.199219 1788.898438 C 1376.101562 1779 1364.699219 1755 1349.101562 1739.101562 C 1330.199219 1719.898438 1305.898438 1705.5 1230 1667.699219 C 1094.101562 1600.199219 993.300781 1561.5 936 1555.199219 C 917.101562 1553.101562 916.800781 1552.800781 927 1550.101562 C 957.601562 1542 1032.601562 1566.300781 1162.5 1626 C 1269.300781 1674.898438 1338 1713.300781 1389 1752 C 1414.199219 1771.199219 1417.5 1772.398438 1419.898438 1765.800781 C 1424.101562 1755 1408.5 1724.101562 1387.800781 1701.601562 L 1375.5 1688.101562 L 1388.699219 1696.5 C 1396.199219 1701 1411.800781 1712.101562 1423.800781 1720.800781 C 1456.5 1745.101562 1464.300781 1742.101562 1449.300781 1711.5 C 1443 1698.898438 1434.300781 1687.5 1424.398438 1678.800781 C 1394.699219 1652.699219 1305.300781 1612.5 1194.601562 1575.300781 C 1101 1543.5 1060.199219 1534.5 979.5 1527.601562 L 952.5 1525.199219 L 970.5 1522.5 C 996.898438 1518.898438 1056 1525.5 1102.199219 1537.5 C 1209 1564.800781 1380.300781 1634.101562 1454.699219 1679.398438 C 1482 1696.199219 1484.398438 1697.101562 1486.800781 1690.800781 C 1489.800781 1683 1473 1656 1452.898438 1636.5 C 1435.800781 1619.699219 1434.300781 1617.601562 1441.800781 1619.699219 C 1446.601562 1620.898438 1464.300781 1629 1481.398438 1637.699219 C 1498.5 1646.101562 1513.5 1652.398438 1515 1651.5 C 1523.699219 1646.101562 1513.5 1622.699219 1493.398438 1601.398438 C 1486.199219 1593.300781 1480.5 1587 1481.101562 1587 C 1481.699219 1587 1498.199219 1595.101562 1518 1605 C 1537.800781 1614.898438 1556.101562 1623 1558.5 1623 C 1570.5 1623 1557.300781 1596 1535.699219 1576.800781 C 1527.300781 1569.300781 1521.601562 1563 1523.101562 1563 C 1524.601562 1563 1539.300781 1566.898438 1555.800781 1572 C 1572 1576.800781 1586.398438 1581 1587.898438 1581 C 1591.800781 1581 1590 1567.5 1584.601562 1560.898438 C 1581.898438 1557.300781 1574.699219 1550.699219 1569 1546.199219 L 1558.5 1538.398438 L 1569 1540.5 C 1574.699219 1541.699219 1588.199219 1545 1598.699219 1548.300781 C 1609.199219 1551.300781 1618.800781 1554 1620.300781 1554 C 1630.199219 1554 1611.601562 1527.898438 1594.5 1517.398438 C 1582.800781 1510.5 1586.101562 1510.5 1618.5 1519.199219 C 1662.300781 1530.601562 1659 1530.300781 1659 1521.898438 C 1659 1517.101562 1654.800781 1509.898438 1647.300781 1502.699219 C 1634.398438 1489.800781 1634.398438 1489.800781 1666.800781 1494.300781 C 1681.5 1496.398438 1690.800781 1496.398438 1692.601562 1494.601562 C 1697.699219 1489.5 1692.601562 1480.800781 1680 1473 L 1667.699219 1465.5 L 1687.5 1463.398438 C 1750.199219 1457.101562 1839.601562 1382.101562 1877.699219 1303.5 C 1891.199219 1275.601562 1906.199219 1228.800781 1911.300781 1198.800781 C 1915.800781 1171.800781 1913.101562 1123.800781 1905.601562 1095.601562 C 1898.699219 1070.101562 1894.199219 1063.199219 1897.5 1083 C 1908.898438 1150.800781 1882.5 1249.199219 1835.398438 1312.5 C 1775.699219 1392.898438 1684.5 1444.5 1581 1456.199219 C 1558.800781 1458.601562 1507.5 1462.199219 1467 1464 C 1205.699219 1475.101562 1040.699219 1487.699219 993.902344 1499.699219 C 981.902344 1503 972 1505.101562 972 1504.5 C 972 1501.5 1007.101562 1482 1040.699219 1466.699219 C 1131.300781 1425.300781 1233.300781 1397.101562 1396.5 1368 C 1474.199219 1354.199219 1525.199219 1342.199219 1554 1330.5 C 1648.199219 1292.101562 1735.199219 1218.300781 1771.199219 1146.300781 C 1781.398438 1126.199219 1798.199219 1080.300781 1796.398438 1078.199219 C 1795.800781 1077.601562 1788.601562 1088.398438 1780.800781 1101.898438 C 1749 1155.601562 1716 1192.800781 1670.398438 1227 C 1605.300781 1275.601562 1528.5 1304.699219 1395 1331.699219 C 1336.5 1343.398438 1284.300781 1356.898438 1245.601562 1370.101562 C 1213.199219 1380.898438 1114.199219 1423.199219 1095.300781 1434.300781 C 1089.898438 1437.601562 1084.800781 1439.699219 1084.199219 1439.398438 C 1081.800781 1436.699219 1117.5 1411.5 1146.300781 1395 C 1208.101562 1360.199219 1260.300781 1342.199219 1378.5 1315.199219 C 1465.800781 1295.398438 1508.398438 1284.300781 1543.800781 1271.699219 C 1647.300781 1235.398438 1741.5 1151.699219 1790.699219 1052.398438 C 1828.5 975.300781 1836.601562 891.300781 1813.5 811.5 C 1805.101562 782.101562 1776.601562 720.300781 1759.800781 695.398438 C 1722.300781 638.699219 1646.101562 575.699219 1571.398438 539.101562 C 1556.101562 531.601562 1539.601562 521.101562 1534.5 516 C 1516.199219 496.199219 1459.5 450.898438 1368.300781 382.5 C 1353.601562 371.398438 1392.898438 415.199219 1452 475.5 C 1536.898438 561.898438 1560.898438 601.199219 1584.898438 693 C 1593 724.5 1593.898438 732.898438 1595.101562 789 C 1596 822.898438 1596 854.398438 1595.398438 859.5 L 1594.5 868.5 L 1584.601562 852.898438 C 1568.699219 828 1563.300781 809.699219 1558.199219 764.101562 C 1547.101562 658.5 1524.601562 588.601562 1482.601562 529.199219 C 1463.398438 502.199219 1374.601562 408.898438 1309.199219 346.800781 C 1225.5 267.601562 1181.398438 235.5 1132.5 218.398438 C 1116.75 212.890625 1103.910156 210.160156 1094.039062 210.199219 Z M 1726.398438 813.109375 C 1726.5 813.101562 1726.628906 813.160156 1726.800781 813.300781 C 1728.898438 814.800781 1733.398438 822.898438 1737 831.300781 C 1746.300781 853.199219 1743 852 1732.5 829.5 C 1727.878906 819.980469 1725.46875 813.179688 1726.398438 813.109375 Z M 1708.089844 825.261719 C 1709 825.210938 1713.128906 830.570312 1719.898438 840.898438 C 1748.699219 884.101562 1753.5 946.800781 1732.199219 1008.601562 C 1704 1092 1641.898438 1159.800781 1550.101562 1207.800781 C 1510.5 1228.5 1469.699219 1241.699219 1404 1255.5 C 1290 1279.199219 1266 1285.199219 1223.398438 1299.300781 C 1158.300781 1320.898438 1118.699219 1341.300781 1056 1386 C 1022.398438 1410 1002.601562 1420.5 978.902344 1426.5 C 958.503906 1431.898438 915.898438 1431.898438 888 1426.5 L 868.5 1422.601562 L 895.5 1422.300781 C 910.5 1422 930.601562 1419.898438 940.5 1417.800781 C 960.300781 1413 1005.300781 1392.898438 1017 1383.300781 C 1023.601562 1377.898438 1023.898438 1377.300781 1019.101562 1375.5 C 1010.699219 1372.199219 1013.101562 1368.898438 1025.398438 1366.800781 C 1039.5 1364.398438 1062 1354.199219 1062 1350.300781 C 1062 1348.5 1056.898438 1346.398438 1050.898438 1345.199219 C 1039.800781 1343.101562 1040.101562 1342.800781 1060.800781 1339.5 C 1085.101562 1335.300781 1112.398438 1324.199219 1108.199219 1320.300781 C 1106.699219 1318.800781 1094.699219 1314.898438 1081.5 1311.601562 L 1057.5 1305.601562 L 1097.398438 1303.5 C 1119 1302.300781 1127.410156 1301.058594 1137 1299 C 1128.441406 1286.628906 1108.570312 1276.199219 1098 1272.300781 L 1084.5 1266.300781 L 1095.300781 1266.300781 C 1101 1266 1120.800781 1268.699219 1138.800781 1272 C 1156.800781 1275.300781 1173.898438 1278 1176.898438 1278 C 1188.898438 1278 1179.300781 1262.699219 1156.5 1245.601562 L 1147.5 1239 L 1156.5 1240.800781 C 1161.601562 1241.699219 1175.699219 1245.601562 1188 1249.5 C 1222.5 1260.300781 1224 1260.300781 1224 1253.398438 C 1224 1248.300781 1204.199219 1224.300781 1186.5 1208.101562 C 1183.199219 1205.101562 1196.398438 1211.101562 1215.898438 1221 C 1235.101562 1231.199219 1258.5 1242 1267.5 1245 C 1284 1250.699219 1284 1250.699219 1284 1244.699219 C 1284 1236.300781 1268.699219 1215 1251.898438 1199.699219 L 1237.5 1187.101562 L 1251 1194.601562 C 1258.5 1198.800781 1276.5 1209.898438 1291.5 1219.199219 C 1320.300781 1237.5 1330.5 1241.699219 1335.601562 1236.601562 C 1341 1231.199219 1332.898438 1212.898438 1311.898438 1182 L 1306.800781 1174.5 L 1314 1180.800781 C 1318.199219 1184.101562 1331.699219 1195.800781 1344.300781 1206.601562 C 1370.398438 1229.101562 1378.5 1234.199219 1384.800781 1231.800781 C 1392 1229.101562 1389.601562 1218 1371.300781 1173 L 1364.699219 1156.5 L 1394.101562 1187.699219 C 1426.199219 1221 1433.101562 1224.300781 1437.601562 1207.199219 C 1439.101562 1200.898438 1437.601562 1188.898438 1432.800781 1168.199219 C 1428.601562 1152 1425.601562 1138.199219 1425.898438 1137.898438 C 1426.5 1137.601562 1435.800781 1148.699219 1446.898438 1162.5 C 1467.601562 1188.898438 1479.601562 1198.800781 1485 1195.5 C 1489.199219 1192.800781 1488.601562 1166.699219 1483.5 1137 C 1481.101562 1122.898438 1479 1110.898438 1479 1110.300781 C 1479 1109.398438 1483.800781 1116.601562 1489.5 1126.199219 C 1499.398438 1142.699219 1521.898438 1172.101562 1528.5 1176.601562 C 1534.199219 1180.800781 1538.398438 1179 1540.199219 1171.5 C 1541.699219 1165.199219 1536.300781 1116.898438 1531.199219 1092 C 1530.300781 1087.800781 1533.898438 1092 1539.601562 1101.898438 C 1553.398438 1125.898438 1565.398438 1140 1571.699219 1140 C 1579.199219 1140 1581.898438 1116.601562 1578.300781 1084.5 C 1576.800781 1071.300781 1575.898438 1060.199219 1576.5 1059.601562 C 1576.800781 1059 1583.101562 1069.199219 1590.300781 1081.800781 C 1603.5 1104.898438 1611.601562 1113.300781 1616.101562 1108.800781 C 1620.601562 1104.300781 1620.601562 1049.101562 1616.101562 1029.898438 C 1613.699219 1019.398438 1612.199219 1011 1612.800781 1011 C 1613.398438 1011 1620 1021.5 1627.5 1034.398438 C 1641.601562 1059 1651.5 1070.398438 1655.398438 1066.800781 C 1656.601562 1065.601562 1657.800781 1054.199219 1658.398438 1041.601562 C 1659.300781 1024.199219 1657.5 1011.300781 1651.800781 990 C 1647.898438 974.398438 1644.898438 961.199219 1645.5 960.601562 C 1647 959.101562 1671.601562 999.601562 1678.5 1015.5 L 1685.398438 1030.5 L 1689 1012.5 C 1693.800781 989.398438 1691.101562 959.398438 1681.5 931.800781 L 1674.300781 910.5 L 1685.398438 922.5 C 1691.398438 929.398438 1699.5 938.699219 1703.398438 943.5 L 1710.300781 952.5 L 1709.101562 931.5 C 1708.199219 917.398438 1704.601562 902.699219 1698.601562 886.800781 C 1693.5 873.601562 1689.601562 862.5 1689.898438 862.199219 C 1690.199219 861.601562 1697.398438 870.601562 1705.5 882 C 1713.898438 893.398438 1722 902.398438 1723.5 901.800781 C 1729.5 900 1721.101562 853.5 1710.898438 833.101562 C 1708.339844 827.859375 1707.46875 825.289062 1708.089844 825.261719 Z M 874.5 1551 C 879.300781 1551 885.300781 1562.699219 882.902344 1566.898438 C 881.101562 1569.898438 877.796875 1569.601562 873.597656 1565.398438 C 868.496094 1560.300781 869.101562 1551 874.5 1551 Z M 847.300781 1567.351562 C 848.902344 1567.289062 850.949219 1568.25 853.199219 1570.5 C 855.902344 1573.199219 858 1576.5 858 1577.699219 C 858 1579.199219 855.898438 1581.898438 853.5 1584 C 849.898438 1587 848.402344 1586.101562 845.699219 1579.800781 C 842.402344 1572.578125 843.777344 1567.488281 847.300781 1567.351562 Z M 822 1587 C 828.300781 1587 834.003906 1595.101562 831.902344 1601.398438 C 829.800781 1606.800781 825.898438 1605.898438 820.800781 1598.398438 C 814.5 1589.398438 814.800781 1587 822 1587 Z M 798.761719 1608.320312 C 801.800781 1608.179688 805.691406 1611.238281 806.402344 1616.398438 C 807.003906 1620.601562 805.796875 1623 803.097656 1623 C 797.398438 1623 795 1620 795 1613.398438 C 795 1609.988281 796.683594 1608.410156 798.761719 1608.320312 Z M 886.511719 1611.789062 C 890.863281 1611.390625 929.945312 1635.679688 928.199219 1638.300781 C 927.300781 1639.800781 925.796875 1641 924.597656 1641 C 921.597656 1641 884.699219 1613.101562 886.199219 1611.898438 C 886.265625 1611.839844 886.371094 1611.800781 886.511719 1611.789062 Z M 861.574219 1620.351562 C 862.820312 1620.359375 864.527344 1620.75 866.699219 1621.5 C 873 1623.300781 877.5 1632.898438 874.5 1638 C 871.199219 1643.398438 867.300781 1641.300781 862.5 1631.699219 C 858.226562 1623.820312 857.832031 1620.339844 861.574219 1620.351562 Z M 834.652344 1636.449219 C 837.875 1636.339844 843 1641.5 843 1645.800781 C 843 1648.199219 840.300781 1650 837 1650 C 831.300781 1650 828.597656 1641.601562 833.097656 1637.101562 C 833.519531 1636.679688 834.054688 1636.46875 834.652344 1636.449219 Z M 799.726562 1644.800781 C 803.199219 1644.710938 807.300781 1650.179688 805.199219 1653.601562 C 804.300781 1654.800781 801.601562 1656 799.199219 1656 C 794.101562 1656 793.5 1648.199219 798.300781 1645.199219 C 798.75 1644.941406 799.234375 1644.808594 799.726562 1644.800781 Z M 816.8125 1686.070312 C 819.539062 1686.011719 822 1687.570312 822 1690.199219 C 822 1692.601562 820.800781 1695.300781 819.300781 1696.199219 C 816 1698.300781 809.398438 1690.800781 812.097656 1688.101562 C 813.449219 1686.75 815.179688 1686.121094 816.8125 1686.070312 Z M 816.8125 1686.070312 "/>
<path fill-rule="nonzero" fill="rgb(0%, 0%, 0%)" fill-opacity="1" d="M 1998.898438 2161.800781 C 1931.699219 2140.5 1914.300781 2067.300781 1964.398438 2016.898438 L 1978.5 2002.800781 L 1980.300781 2020.800781 C 1981.199219 2030.398438 1984.199219 2042.699219 1986.898438 2047.5 C 1994.398438 2061.898438 2013 2078.101562 2032.199219 2086.800781 C 2047.5 2093.699219 2052.300781 2094.601562 2073 2093.398438 C 2112.898438 2091 2145.898438 2070 2162.699219 2036.398438 C 2170.800781 2020.800781 2172 2014.800781 2172 1995.300781 C 2172 1979.398438 2170.199219 1968.601562 2166.300781 1959.898438 C 2158.199219 1942.5 2138.101562 1923.898438 2122.800781 1919.699219 C 2094.898438 1912.199219 2089.5 1909.5 2084.699219 1899.601562 C 2069.101562 1869 2106.898438 1851 2146.199219 1870.199219 C 2191.5 1892.398438 2221.5 1950.300781 2215.800781 2004.601562 C 2205.898438 2100 2133.601562 2166.300781 2040.300781 2165.699219 C 2024.398438 2165.699219 2005.800781 2163.898438 1998.898438 2161.800781 Z M 1998.898438 2161.800781 "/>
<path fill-rule="nonzero" fill="rgb(0%, 0%, 0%)" fill-opacity="1" d="M 1191.898438 2087.699219 C 1197 2072.101562 1200.601562 2006.699219 1199.101562 1956.898438 C 1198.199219 1910.398438 1196.699219 1896.601562 1191.300781 1878 C 1181.398438 1845 1168.199219 1819.199219 1152.300781 1802.699219 L 1138.199219 1788 L 1157.699219 1788 C 1191.300781 1788.300781 1229.699219 1807.800781 1245.300781 1832.699219 C 1266.898438 1866.601562 1265.398438 1935.898438 1242 1991.699219 C 1233.898438 2011.199219 1189.199219 2097 1191.898438 2087.699219 Z M 1191.898438 2087.699219 "/>
<path fill-rule="nonzero" fill="rgb(0%, 0%, 0%)" fill-opacity="1" d="M 2110.199219 2005.800781 C 2110.199219 2032.5 2088.601562 2054.101562 2061.601562 2054.101562 C 2034.898438 2054.101562 2013.300781 2032.5 2013.300781 2005.800781 C 2013.300781 1978.800781 2034.898438 1957.199219 2061.601562 1957.199219 C 2088.601562 1957.199219 2110.199219 1978.800781 2110.199219 2005.800781 Z M 2110.199219 2005.800781 "/>
<path fill-rule="nonzero" fill="rgb(0%, 0%, 0%)" fill-opacity="1" d="M 1686.601562 1971 C 1686.601562 1999.5 1663.5 2022.898438 1635 2022.898438 C 1606.5 2022.898438 1583.398438 1999.5 1583.398438 1971 C 1583.398438 1942.5 1606.5 1919.398438 1635 1919.398438 C 1663.5 1919.398438 1686.601562 1942.5 1686.601562 1971 Z M 1686.601562 1971 "/>
<path fill-rule="nonzero" fill="rgb(0%, 0%, 0%)" fill-opacity="1" d="M 2205 1873.800781 C 2181 1852.199219 2165.398438 1845 2138.398438 1842.898438 C 2118.601562 1841.101562 2110.820312 1836.640625 2105.660156 1831.511719 C 2100.511719 1826.390625 2095.089844 1819.71875 2097.039062 1808.019531 C 2098.988281 1796.320312 2107.199219 1788.601562 2120.101562 1786.199219 C 2139.601562 1782.601562 2164.5 1800.601562 2162.398438 1816.800781 C 2161.5 1824.601562 2163.601562 1826.699219 2181 1837.5 C 2192.101562 1844.398438 2205 1855.800781 2211.300781 1864.199219 C 2221.199219 1877.101562 2227.5 1890 2224.199219 1890 C 2223.601562 1890 2214.898438 1882.800781 2205 1873.800781 Z M 2205 1873.800781 "/>
<path fill-rule="nonzero" fill="rgb(0%, 0%, 0%)" fill-opacity="1" d="M 1804.5 1857 C 1785.898438 1831.5 1749.601562 1809.601562 1714.800781 1802.699219 C 1681.800781 1796.398438 1683.300781 1797.300781 1697.398438 1791 C 1709.699219 1785.300781 1808.101562 1725.898438 1832.101562 1709.699219 C 1839 1704.898438 1845.300781 1701 1846.199219 1701 C 1847.398438 1701 1844.699219 1706.398438 1840.5 1713 C 1836.300781 1719.601562 1828.800781 1737.300781 1823.699219 1752.300781 C 1814.101562 1781.101562 1812.300781 1806.300781 1816.800781 1851.300781 C 1818 1862.699219 1818 1872 1817.101562 1872 C 1816.199219 1872 1810.5 1865.398438 1804.5 1857 Z M 1804.5 1857 "/>
<path fill-rule="nonzero" fill="rgb(0%, 0%, 0%)" fill-opacity="1" d="M 1477.5 1800 C 1488 1766.398438 1526.699219 1711.800781 1575.300781 1662 C 1609.5 1627.199219 1636.199219 1604.101562 1723.800781 1534.199219 C 1764.898438 1501.5 1812.601562 1460.699219 1830 1443.300781 C 1901.101562 1372.199219 1941.601562 1300.800781 1958.398438 1218.300781 L 1964.101562 1189.800781 L 1965.601562 1206.300781 C 1967.699219 1224 1964.398438 1261.800781 1959 1285.5 C 1949.398438 1328.699219 1925.699219 1380.601562 1899 1416.300781 C 1876.199219 1446.898438 1815.601562 1503.601562 1753.5 1552.5 C 1614 1662.300781 1537.5 1730.699219 1491 1788 C 1481.101562 1800 1476 1804.5 1477.5 1800 Z M 1477.5 1800 "/>
<path fill-rule="nonzero" fill="rgb(0%, 0%, 0%)" fill-opacity="1" d="M 2043.300781 1796.699219 C 2043 1794.300781 2046.300781 1773.898438 2050.199219 1751.398438 C 2072.699219 1625.398438 2079.300781 1514.101562 2073.300781 1354.199219 C 2067 1178.101562 2042.398438 1069.800781 1981.199219 947.398438 C 1961.101562 907.199219 1924.5 844.800781 1903.5 814.5 C 1885.199219 788.101562 1884.601562 786.898438 1898.101562 797.398438 C 1913.101562 809.699219 1951.800781 854.101562 1976.398438 887.101562 C 2024.398438 952.800781 2068.5 1052.398438 2085 1133.101562 C 2097.898438 1197.898438 2100.601562 1232.398438 2102.101562 1368 C 2103.601562 1511.398438 2101.199219 1552.800781 2086.199219 1630.199219 C 2074.5 1690.800781 2043.898438 1809.601562 2043.300781 1796.699219 Z M 2043.300781 1796.699219 "/>
<path fill-rule="nonzero" fill="rgb(0%, 0%, 0%)" fill-opacity="1" d="M 1118.101562 1453.5 C 1146.300781 1442.398438 1202.699219 1426.5 1245 1418.101562 C 1297.5 1407.300781 1343.699219 1401.601562 1420.5 1396.5 C 1531.5 1389 1588.800781 1379.101562 1644.601562 1357.5 C 1707.898438 1332.898438 1751.699219 1300.199219 1784.398438 1253.101562 C 1805.101562 1223.398438 1815.300781 1194 1822.800781 1144.800781 C 1823.699219 1138.5 1824.898438 1134 1825.800781 1134.898438 C 1826.398438 1135.5 1828.5 1148.101562 1830.300781 1162.800781 C 1835.101562 1206.898438 1825.199219 1251 1800.300781 1292.699219 C 1772.699219 1339.199219 1743 1366.199219 1690.5 1392 C 1632.300781 1420.800781 1596 1425.898438 1374 1437 C 1271.398438 1442.101562 1200.300781 1447.800781 1143 1455.300781 C 1130.699219 1456.800781 1115.699219 1458.601562 1110 1459.5 C 1101.898438 1460.699219 1103.398438 1459.199219 1118.101562 1453.5 Z M 1118.101562 1453.5 "/>
<path fill-rule="nonzero" fill="rgb(0%, 0%, 0%)" fill-opacity="1" d="M 2374.5 1186.5 C 2282.699219 1110 2219.101562 1052.101562 2115 949.5 C 1985.398438 821.699219 1942.800781 788.101562 1850.398438 739.800781 C 1822.5 725.398438 1800 713.101562 1800 712.199219 C 1800 711.300781 1801.199219 711.300781 1802.699219 712.199219 C 1803.898438 713.101562 1837.800781 718.800781 1877.699219 724.5 C 1998.898438 742.5 2032.800781 756 2128.5 824.699219 C 2274.601562 929.101562 2389.800781 1059.300781 2461.5 1200.601562 C 2472.300781 1221.300781 2484.949219 1249.480469 2490 1262.699219 C 2495.480469 1277.03125 2503.191406 1290.410156 2506.769531 1304.550781 C 2460.179688 1257.621094 2414.46875 1219.980469 2374.5 1186.5 Z M 2374.5 1186.5 "/>
<path fill-rule="nonzero" fill="rgb(0%, 0%, 0%)" fill-opacity="1" d="M 1016.699219 753.898438 C 994.800781 723.601562 951 666 915 619.5 C 839.101562 522 807.601562 468.898438 816 453 C 822.300781 441 837.601562 444.898438 915.601562 478.199219 C 1016.101562 520.800781 1056 534.601562 1104.601562 543 L 1124.398438 546.601562 L 1123.199219 555.898438 C 1122.601562 561.300781 1120.800781 582.300781 1119 603 C 1114.5 655.199219 1110.300781 684 1104.898438 694.5 C 1100.699219 702.601562 1034.398438 771 1030.800781 771 C 1029.898438 771 1023.601562 763.199219 1016.699219 753.898438 Z M 1016.699219 753.898438 "/>
<path fill-rule="nonzero" fill="rgb(0%, 0%, 0%)" fill-opacity="1" d="M 1945.5 702.898438 C 1894.800781 692.101562 1818.300781 668.101562 1794.601562 655.800781 C 1789.199219 653.101562 1770.300781 639.898438 1752.601562 626.398438 C 1717.199219 599.699219 1711.199219 594.601562 1720.5 599.398438 C 1723.800781 600.898438 1734 605.699219 1743 609.898438 C 1752 613.800781 1780.5 627 1806 639 C 1860.601562 664.5 1906.800781 684.601562 1938 696.300781 C 1958.398438 704.101562 1961.101562 706.5 1945.5 702.898438 Z M 1945.5 702.898438 "/>
<path fill-rule="nonzero" fill="rgb(0%, 0%, 0%)" fill-opacity="1" d="M 2353.550781 1365.710938 C 2353.550781 1374.640625 2346.109375 1382.078125 2337.179688 1382.078125 C 2328.25 1382.078125 2320.808594 1374.640625 2320.808594 1365.710938 C 2320.808594 1356.53125 2328.25 1349.339844 2337.179688 1349.339844 C 2346.109375 1349.339844 2353.550781 1356.53125 2353.550781 1365.710938 Z M 2353.550781 1365.710938 "/>
</svg>
